<?xml version="1.0" encoding="UTF-8" standalone="no"?>
<svg
   xmlns:dc="http://purl.org/dc/elements/1.1/"
   xmlns:cc="http://creativecommons.org/ns#"
   xmlns:rdf="http://www.w3.org/1999/02/22-rdf-syntax-ns#"
   xmlns:svg="http://www.w3.org/2000/svg"
   xmlns="http://www.w3.org/2000/svg"
   xmlns:sodipodi="http://sodipodi.sourceforge.net/DTD/sodipodi-0.dtd"
   xmlns:inkscape="http://www.inkscape.org/namespaces/inkscape"
   inkscape:version="1.0 (4035a4fb49, 2020-05-01)"
   sodipodi:docname="webcam.svg"
   id="svg10"
   version="1.1"
   viewBox="0 0 10240 10240"
   clip-rule="evenodd"
   fill-rule="nonzero"
   image-rendering="optimizeQuality"
   text-rendering="geometricPrecision"
   shape-rendering="geometricPrecision"
   height="1024px"
   width="1024px"
   xml:space="preserve"><metadata
   id="metadata16"><rdf:RDF><cc:Work
       rdf:about=""><dc:format>image/svg+xml</dc:format><dc:type
         rdf:resource="http://purl.org/dc/dcmitype/StillImage" /></cc:Work></rdf:RDF></metadata><defs
   id="defs14" /><sodipodi:namedview
   inkscape:current-layer="svg10"
   inkscape:window-maximized="1"
   inkscape:window-y="32"
   inkscape:window-x="-8"
   inkscape:cy="512"
   inkscape:cx="512"
   inkscape:zoom="0.984375"
   showgrid="false"
   id="namedview12"
   inkscape:window-height="1377"
   inkscape:window-width="2560"
   inkscape:pageshadow="2"
   inkscape:pageopacity="0"
   guidetolerance="10"
   gridtolerance="10"
   objecttolerance="10"
   borderopacity="1"
   bordercolor="#666666"
   pagecolor="#ffffff" />
	<title
   id="title2">webcam icon</title>
	<desc
   id="desc4">webcam icon from the IconExperience.com O-Collection. Copyright by INCORS GmbH (www.incors.com).</desc>
	<rect
   inkscape:export-ydpi="98.152626"
   inkscape:export-xdpi="98.152626"
   y="-10.158731"
   x="-10.158731"
   height="10250.158"
   width="10270.477"
   id="rect841"
   style="fill:#4d82b8;stroke-width:129.644" /><path
   inkscape:export-ydpi="98.152626"
   inkscape:export-xdpi="98.152626"
   style="fill:#eeeeee;fill-opacity:1"
   d="M7132 7421c700,282 1267,692 1668,1135 154,170 202,450 121,696 -81,246 -268,382 -464,340 -917,-195 -2128,-383 -3337,-358 -1210,-25 -2420,163 -3337,358 -196,42 -383,-94 -464,-340 -81,-246 -33,-525 121,-696 398,-440 961,-848 1655,-1129 585,362 1275,572 2014,572 743,0 1436,-212 2023,-578z"
   fill="#252525"
   id="curve3" />
	<path
   inkscape:export-ydpi="98.152626"
   inkscape:export-xdpi="98.152626"
   style="fill:#ffffff;fill-opacity:1"
   d="M5109 660c1939,0 3510,1571 3510,3509 0,1939 -1571,3510 -3510,3510 -1938,0 -3509,-1571 -3509,-3510 0,-1938 1571,-3509 3509,-3509zm11 940c-1414,0 -2560,1146 -2560,2560 0,1414 1146,2560 2560,2560 1414,0 2560,-1146 2560,-2560 0,-1414 -1146,-2560 -2560,-2560z"
   fill="#252525"
   id="curve2" />
	<path
   inkscape:export-ydpi="98.152626"
   inkscape:export-xdpi="98.152626"
   style="fill:#faffff;fill-opacity:1"
   d="M5120 1920c1237,0 2240,1003 2240,2240 0,1237 -1003,2240 -2240,2240 -1237,0 -2240,-1003 -2240,-2240 0,-1237 1003,-2240 2240,-2240zm0 640c-884,0 -1600,716 -1600,1600 0,884 716,1600 1600,1600 884,0 1600,-716 1600,-1600 0,-884 -716,-1600 -1600,-1600z"
   fill="#252525"
   id="curve1" />
	<path
   inkscape:export-ydpi="98.152626"
   inkscape:export-xdpi="98.152626"
   d="M5120 2880c707,0 1280,573 1280,1280 0,707 -573,1280 -1280,1280 -707,0 -1280,-573 -1280,-1280 0,-707 573,-1280 1280,-1280zm-480 320c-265,0 -480,215 -480,480 0,265 215,480 480,480 265,0 480,-215 480,-480 0,-265 -215,-480 -480,-480z"
   fill="#DE8D00"
   id="curve0" />
</svg>
